<?xml version="1.0" encoding="utf-8"?>
<!-- Generator: Adobe Illustrator 19.1.0, SVG Export Plug-In . SVG Version: 6.00 Build 0)  -->
<svg version="1.1" id="Layer_1" xmlns="http://www.w3.org/2000/svg" xmlns:xlink="http://www.w3.org/1999/xlink" x="0px" y="0px"
	 viewBox="0 0 461.632 168.787" enable-background="new 0 0 461.632 168.787" xml:space="preserve">
<circle cx="84.393" cy="84.393" r="82.747"/>
<circle fill="none" stroke="#FFFFFF" stroke-width="10" stroke-miterlimit="10" cx="84.393" cy="84.393" r="71.811"/>
<g>
	<path fill="none" d="M26.757,84.393c0,16.401,6.804,31.196,17.804,41.722V42.672C33.56,53.198,26.757,67.993,26.757,84.393z"/>
	<path fill="none" d="M63.56,95.508v43.003c7,2.399,13.634,3.722,20.827,3.722c6.945,0,13.173-1.227,20.173-3.471V95.508H63.56z"/>
	<path fill="none" d="M104.56,72.508V30.024c-7-2.244-13.228-3.471-20.173-3.471c-7.193,0-13.827,1.323-20.827,3.722v42.232H104.56z
		"/>
	<path fill="none" d="M123.56,42.049v84.69c12-10.561,18.457-25.619,18.457-42.345S135.56,52.609,123.56,42.049z"/>
	<path fill="#FFFFFF" d="M104.56,30.024v42.484h-41V30.276c-7,2.786-14,7.037-19,12.396v83.443c5,5.359,12,9.611,19,12.396V95.508
		h41v43.255c7-2.673,14-6.801,19-12.024v-84.69C118.56,36.825,111.56,32.698,104.56,30.024z"/>
</g>
<line fill="none" stroke="#000000" stroke-width="6" stroke-miterlimit="10" x1="54.56" y1="31.508" x2="54.56" y2="137.508"/>
<line fill="none" stroke="#000000" stroke-width="6" stroke-miterlimit="10" x1="113.56" y1="30.508" x2="113.56" y2="138.508"/>
<line fill="none" stroke="#000000" stroke-width="6" stroke-miterlimit="10" x1="115.442" y1="83.903" x2="56.119" y2="83.902"/>
<g>
	<rect x="198.061" y="42.508" fill="none" width="371" height="112"/>
	<path d="M250.177,89.941c0,3.836-0.624,7.283-1.869,10.338c-1.246,3.055-2.979,5.625-5.201,7.705s-4.814,3.673-7.777,4.778
		c-2.963,1.104-6.16,1.656-9.595,1.656c-3.434,0-6.615-0.519-9.544-1.561c-2.93-1.04-5.472-2.552-7.626-4.534
		c-2.155-1.982-3.838-4.438-5.05-7.363s-1.818-6.273-1.818-10.045c0-3.9,0.622-7.395,1.869-10.483
		c1.245-3.088,2.979-5.673,5.201-7.753c2.222-2.08,4.813-3.674,7.777-4.779c2.962-1.104,6.16-1.659,9.595-1.659
		c3.434,0,6.615,0.505,9.544,1.512c2.93,1.008,5.47,2.52,7.626,4.535c2.154,2.016,3.838,4.485,5.05,7.411
		S250.177,86.04,250.177,89.941z M237.855,90.428c0-2.74-0.338-5.084-1.01-7.028c-0.674-1.944-1.565-3.521-2.677-4.733
		c-1.111-1.21-2.391-2.102-3.838-2.677c-1.449-0.573-2.946-0.86-4.494-0.86c-1.55,0-3.03,0.24-4.444,0.718
		c-1.414,0.478-2.661,1.307-3.737,2.485c-1.077,1.179-1.953,2.755-2.626,4.731c-0.674,1.976-1.01,4.43-1.01,7.363
		c0,2.676,0.336,4.955,1.01,6.834c0.673,1.881,1.565,3.442,2.677,4.686c1.111,1.244,2.39,2.151,3.838,2.725
		c1.447,0.574,2.945,0.859,4.494,0.859c1.48,0,2.945-0.254,4.394-0.764c1.447-0.51,2.71-1.338,3.788-2.485
		c1.076-1.147,1.952-2.692,2.626-4.637C237.517,95.701,237.855,93.297,237.855,90.428z"/>
	<path d="M261.185,114.318v-63.63h12.322v25.755h26.158V50.689h12.322v63.63h-12.322V86.342h-26.158v27.977H261.185z"/>
	<path d="M326.33,71.394c2.962-1.616,5.959-2.879,8.988-3.788c3.03-0.909,6.363-1.364,9.999-1.364c2.828,0,5.387,0.316,7.677,0.944
		c2.288,0.63,4.274,1.64,5.959,3.03c1.682,1.39,2.979,3.194,3.888,5.413c0.909,2.219,1.364,4.917,1.364,8.096v30.594h-9.394
		l-1.212-5.603h-0.303c-3.435,3.804-8.316,5.703-14.646,5.703c-5.05,0-8.988-1.328-11.816-3.989
		c-2.828-2.659-4.242-6.11-4.242-10.353c0-2.692,0.571-5.015,1.717-6.969c1.145-1.952,2.71-3.568,4.696-4.849
		c1.985-1.277,4.359-2.237,7.121-2.878c2.76-0.64,5.757-0.959,8.989-0.959h7.069v-2.793c0-2.2-0.774-3.767-2.323-4.698
		s-3.636-1.397-6.262-1.397c-1.886,0-3.889,0.259-6.01,0.777c-2.12,0.518-4.461,1.409-7.02,2.675L326.33,71.394z M352.287,92.199
		h-5.454c-4.444,0-7.542,0.701-9.292,2.102c-1.752,1.402-2.626,3.092-2.626,5.074c0,2.529,0.74,4.238,2.222,5.127
		c1.48,0.889,3.197,1.332,5.151,1.332c1.952,0,3.82-0.487,5.605-1.465c1.783-0.975,3.247-2.338,4.394-4.09V92.199z"/>
	<path d="M383.192,55.233c-2.088,0-3.721-0.606-4.898-1.818c-1.179-1.212-1.768-2.727-1.768-4.545c0-1.75,0.606-3.248,1.818-4.494
		c1.212-1.245,2.828-1.869,4.848-1.869c1.952,0,3.535,0.606,4.747,1.818s1.818,2.727,1.818,4.545c0,1.818-0.606,3.333-1.818,4.545
		C386.727,54.628,385.144,55.233,383.192,55.233z M377.233,114.318V66.343h11.918v47.975H377.233z"/>
	<path d="M403.291,114.318V42.507h11.716v71.811H403.291z"/>
</g>
<g>
</g>
<g>
</g>
<g>
</g>
<g>
</g>
<g>
</g>
<g>
</g>
<g>
</g>
<g>
</g>
<g>
</g>
<g>
</g>
<g>
</g>
<g>
</g>
<g>
</g>
<g>
</g>
<g>
</g>
</svg>
